<?xml version="1.0" encoding="iso-8859-1"?>
<!-- Generator: Adobe Illustrator 19.0.0, SVG Export Plug-In . SVG Version: 6.00 Build 0)  -->
<svg version="1.1" id="Layer_1" xmlns="http://www.w3.org/2000/svg" xmlns:xlink="http://www.w3.org/1999/xlink" x="0px" y="0px"
	 viewBox="0 0 512.002 512.002" style="enable-background:new 0 0 512.002 512.002;" xml:space="preserve">
<g>
	<g>
		<g>
			<path d="M320.111,249.294c-3.959-0.324-24.841-2.185-34.731-3.063l-16.068-39.953c-2.475-6.178-7.603-10.01-13.389-10.01
				c-6.11,0-11.324,4.258-13.107,10.342c-1.493,4.045-10.419,28.732-14.345,39.612l-37.06,3.14
				c-5.743,0.486-10.283,4.113-11.844,9.455c-1.655,5.658,0.384,12.058,4.958,15.556c2.389,1.843,19.823,14.626,28.459,20.949
				l-10.573,36.318c-2.278,6.699-0.657,11.034,1.101,13.491c4.045,5.658,13.389,6.187,20.036,1.545
				c3.413-2.372,22.963-16.341,32.307-23.014c9.293,6.647,28.689,20.506,32.256,22.989c3.055,2.133,6.741,3.354,10.138,3.354
				c3.994,0,7.603-1.698,9.89-4.659c1.826-2.364,3.635-6.588,1.886-13.261c-1.783-6.758-6.801-27.008-9.216-36.77l26.3-20.412
				c4.753-3.695,6.835-10.334,5.052-16.12C330.479,253.296,325.795,249.661,320.111,249.294z M285.961,285.228
				c-2.654,2.065-3.857,5.513-3.046,8.781c0,0,5.026,20.403,8.431,34.022c-10.897-7.757-30.524-21.794-30.524-21.794
				c-1.485-1.067-3.226-1.596-4.966-1.596c-1.741,0-3.482,0.529-4.966,1.596c0,0-18.202,13.013-29.423,21l9.583-32.879
				c0.998-3.448-0.256-7.151-3.157-9.276c0,0-16.777-12.271-26.496-19.439l33.963-2.876c3.32-0.282,6.178-2.466,7.305-5.598
				c0,0,8.781-24.311,13.594-37.615l15.24,37.897c1.195,2.978,3.968,5.035,7.159,5.316c0,0,20.574,1.835,32.538,2.884
				L285.961,285.228z"/>
			<path d="M507.29,60.63l-68.267-34.133C422.051,18.023,394.932,8.534,384,8.534h-34.133c-4.71,0-8.533,3.823-8.533,8.533
				c0,47.053-38.281,85.333-85.333,85.333c-44.169,0-80.597-33.741-84.898-76.8h144.631c4.719,0,8.533-3.823,8.533-8.533
				s-3.814-8.533-8.533-8.533H128.009c-10.923,0-38.059,9.489-55.023,17.963L4.719,60.63c-3.575,1.792-5.436,5.82-4.463,9.702
				L34.39,206.874c1.084,4.309,5.291,7.066,9.685,6.34l41.259-6.869v254.455c0,23.526,19.149,42.667,42.675,42.667H384
				c23.526,0,42.667-19.14,42.667-42.667V206.345l41.267,6.869c4.292,0.717,8.602-2.031,9.677-6.34l34.133-136.542
				C512.717,66.45,510.866,62.422,507.29,60.63z M462.968,195.09l-43.435-7.245c-2.466-0.401-4.992,0.299-6.912,1.911
				c-1.92,1.621-3.021,4.002-3.021,6.511v255.94H127.813c-4.71,0-8.533,3.823-8.533,8.533s3.823,8.533,8.533,8.533h280.235
				c-3.516,9.941-12.911,17.126-24.047,17.126H128.009c-14.123,0-25.6-11.486-25.6-25.6V196.268c0-2.509-1.109-4.89-3.021-6.511
				c-1.92-1.621-4.454-2.33-6.921-1.911l-43.426,7.245L18.475,72.833L36.95,63.6l26.957,109.116
				c0.956,3.883,4.446,6.485,8.269,6.485c0.683,0,1.374-0.077,2.057-0.256c4.574-1.126,7.373-5.751,6.238-10.325L52.591,55.775
				l28.032-14.012c17.843-8.926,41.438-16.162,47.386-16.162h26.027c4.361,52.472,48.384,93.867,101.965,93.867
				c53.589,0,97.613-41.395,101.973-93.867H384c5.948,0,29.534,7.236,47.386,16.162l28.015,14.012l-28.203,112.819
				c-1.152,4.574,1.63,9.207,6.204,10.351c0.691,0.179,1.391,0.256,2.074,0.256c3.831,0,7.305-2.586,8.269-6.46l27.281-109.15
				l18.5,9.242L462.968,195.09z"/>
		</g>
	</g>
</g>
<g>
</g>
<g>
</g>
<g>
</g>
<g>
</g>
<g>
</g>
<g>
</g>
<g>
</g>
<g>
</g>
<g>
</g>
<g>
</g>
<g>
</g>
<g>
</g>
<g>
</g>
<g>
</g>
<g>
</g>
</svg>
